# Wavefront OBJ file made by Mineways version 9.17, http://mineways.com
# World: New World
# Terrain file name: C:\Users\kevin\Downloads\minewaysV1000\mineways\terrainExt.png
# Color scheme: Standard
# Thu Jun 16 20:48:48 2022

# Selection location min to max: 13, -63, -46 to 17, 319, -42
#   Non-empty selection location min to max: 13, -60, -46 to 17, -54, -42

# Set render type: Wavefront OBJ relative indices
# Units for the model vertex data itself: meters

# 139 vertices, 337 faces (674 triangles), 60 blocks, 0 billboards/bits
# block dimensions: X=5 by Y=7 (height) by Z=5 blocks
# Elevation shading: no
# Lighting: no
# Transparent water: no
# Map grid: no
# File type: Export all textures to three large images
# Texture output RGB: YES
# Texture output A: YES
# Texture output RGBA: YES
# OBJ relative coordinates
# Make groups objects: no
# Export separate objects: YES
# Individual blocks: no
#   Material per family: YES
#   Split by block type: YES
# G3D full material: YES
# Make Z the up direction instead of Y: no
# Create composite overlay faces: no
# Center model: YES
# Export lesser blocks: YES
# Fatten lesser blocks: no
# Create block faces at the borders: YES
# Make tree leaves solid: no
# Use biomes: no
# Rotate model 0.000000 degrees
# Scale model by making each block 1000 mm high
# Data operation options:
#   Fill air bubbles: no; Seal off entrances: no; Fill in isolated tunnels in base of model: no
#   Connect parts sharing an edge: no; Connect corner tips: no; Weld all shared edges: no
#   Delete floating objects: trees and parts smaller than 16 blocks: no
#   Hollow out bottom of model, making the walls 1000 mm thick: no; Superhollow: no
# Melt snow blocks: no
#   Debug: show separate parts as colors: no
#   Debug: show weld blocks in bright colors: no

# Full world path: C:\Users\kevin\AppData\Roaming\.minecraft\saves\New World
# Full terrainExt.png path: C:\Users\kevin\Downloads\minewaysV1000\mineways\terrainExt.png
# Full current path: C:\Users\kevin\Downloads\minewaysV1000\mineways

mtllib Mineways2Skfb.mtl

o New_World__13_-63_-46_to_17_319_-42
vn -1 0 0
vn 0 -1 0
vn 0 0 -1
vn 1 0 0
vn 0 1 0
vn 0 0 1
vn -0.707107 0 -0.707107
vn -0.707107 0 0.707107
vn 0.707107 0 -0.707107
vn 0.707107 0 0.707107
vn -0.707107 -0.707107 0
vn 0 -0.707107 -0.707107
vn 0.707107 -0.707107 0
vn 0 -0.707107 0.707107
vn -0.707107 0.707107 0
vn 0 0.707107 -0.707107
vn 0.707107 0.707107 0
vn 0 0.707107 0.707107
vn -0.92388 0 -0.382683
vn -0.92388 0 0.382683
vn 0.92388 0 -0.382683
vn 0.92388 0 0.382683
vn -0.382683 0 -0.92388
vn -0.382683 0 0.92388
vn 0.382683 0 -0.92388
vn 0.382683 0 0.92388
vn -0.397273 0.9177 0
vn 0.397273 -0.9177 0
vn 0.397273 0.9177 0
vn -0.397273 -0.9177 0
vn 0 0.9177 -0.397273
vn 0 -0.9177 0.397273
vn 0 0.9177 0.397273
vn 0 -0.9177 -0.397273
vn -0.440932 0.897541 0
vn 0.440932 -0.897541 0
vn 0.440932 0.897541 0
vn -0.440932 -0.897541 0
vn 0 0.897541 -0.440932
vn 0 -0.897541 0.440932
vn 0 0.897541 0.440932
vn 0 -0.897541 -0.440932
# oak_leaves
vt 0.915039062 0.983398438
vt 0.930664062 0.983398438
vt 0.930664062 0.999023438
vt 0.915039062 0.999023438
# oak_log
vt 0.352539062 0.983398438
vt 0.368164062 0.983398438
vt 0.368164062 0.999023438
vt 0.352539062 0.999023438
# oak_log_top
vt 0.370117188 0.983398438
vt 0.385742188 0.983398438
vt 0.385742188 0.999023438
vt 0.370117188 0.999023438
v -0.285714 0.857143 -0.285714
v -0.285714 0.857143 -0.142857
v -0.285714 1 -0.142857
v -0.285714 1 -0.285714
v -0.142857 0.857143 -0.142857
v -0.142857 0.857143 -0.285714
v -0.142857 1 -0.285714
v -0.142857 1 -0.142857
v -0.285714 0.857143 0
v -0.285714 1 0
v -0.142857 0.857143 0
v -0.142857 1 0
v -0.285714 1.14286 0
v -0.285714 1.14286 -0.142857
v -0.142857 1.14286 -0.142857
v -0.142857 1.14286 0
v -0.285714 0.857143 0.142857
v -0.285714 1 0.142857
v -0.142857 0.857143 0.142857
v -0.142857 1 0.142857
v -0.285714 1.14286 0.142857
v -0.142857 1.14286 0.142857
v -0.285714 0.857143 0.285714
v -0.285714 1 0.285714
v -0.142857 0.857143 0.285714
v -0.142857 1 0.285714
v -0.285714 1.14286 0.285714
v -0.142857 1.14286 0.285714
v 0 0.857143 -0.142857
v 0 0.857143 -0.285714
v 0 1 -0.285714
v 0 1 -0.142857
v -0.142857 1.14286 -0.285714
v 0 1.14286 -0.285714
v 0 1.14286 -0.142857
v 0 0.857143 0
v 0 1 0
v 0 1.14286 0
v -0.142857 1.28571 0
v -0.142857 1.28571 -0.142857
v 0 1.28571 -0.142857
v 0 1.28571 0
v 0 0.857143 0.142857
v 0 1 0.142857
v 0 1.14286 0.142857
v -0.142857 1.28571 0.142857
v 0 1.28571 0.142857
v -0.142857 1.42857 0.142857
v -0.142857 1.42857 0
v 0 1.42857 0
v 0 1.42857 0.142857
v 0 0.857143 0.285714
v 0 1 0.285714
v 0 1.14286 0.285714
v -0.142857 0.857143 0.428571
v -0.142857 1 0.428571
v 0 0.857143 0.428571
v 0 1 0.428571
v -0.142857 1.14286 0.428571
v 0 1.14286 0.428571
v 0.142857 0.857143 -0.142857
v 0.142857 0.857143 -0.285714
v 0.142857 1 -0.285714
v 0.142857 1 -0.142857
v 0.142857 1.14286 -0.285714
v 0.142857 1.14286 -0.142857
v 0.142857 0.857143 0
v 0.142857 1 0
v 0.142857 1.14286 0
v 0.142857 1.28571 -0.142857
v 0.142857 1.28571 0
v 0 1.42857 -0.142857
v 0.142857 1.42857 -0.142857
v 0.142857 1.42857 0
v 0 0.428571 0
v 0 0.428571 0.142857
v 0 0.571429 0.142857
v 0 0.571429 0
v 0.142857 0.428571 0.142857
v 0.142857 0.428571 0
v 0.142857 0.571429 0
v 0.142857 0.571429 0.142857
v 0 0.714286 0.142857
v 0 0.714286 0
v 0.142857 0.714286 0
v 0.142857 0.714286 0.142857
v 0.142857 0.857143 0.142857
v 0.142857 1 0.142857
v 0.142857 1.14286 0.142857
v 0.142857 1.28571 0.142857
v 0.142857 1.42857 0.142857
v 0.142857 0.857143 0.285714
v 0.142857 1 0.285714
v 0.142857 1.14286 0.285714
v 0 1.28571 0.285714
v 0.142857 1.28571 0.285714
v 0 1.42857 0.285714
v 0.142857 1.42857 0.285714
v 0.142857 0.857143 0.428571
v 0.142857 1 0.428571
v 0.142857 1.14286 0.428571
v 0.285714 0.857143 -0.142857
v 0.285714 0.857143 -0.285714
v 0.285714 1 -0.285714
v 0.285714 1 -0.142857
v 0.285714 1.14286 -0.285714
v 0.285714 1.14286 -0.142857
v 0.285714 0.857143 0
v 0.285714 1 0
v 0.285714 1.14286 0
v 0.285714 0.857143 0.142857
v 0.285714 1 0.142857
v 0.285714 1.14286 0.142857
v 0.285714 1.28571 0
v 0.285714 1.28571 0.142857
v 0.285714 1.42857 0
v 0.285714 1.42857 0.142857
v 0.285714 0.857143 0.285714
v 0.285714 1 0.285714
v 0.285714 1.14286 0.285714
v 0.285714 1.28571 0.285714
v 0.285714 0.857143 0.428571
v 0.285714 1 0.428571
v 0.285714 1.14286 0.428571
v 0.428571 0.857143 -0.142857
v 0.428571 0.857143 -0.285714
v 0.428571 1 -0.285714
v 0.428571 1 -0.142857
v 0.428571 1.14286 -0.285714
v 0.428571 1.14286 -0.142857
v 0.428571 0.857143 0
v 0.428571 1 0
v 0.428571 1.14286 0
v 0.428571 0.857143 0.142857
v 0.428571 1 0.142857
v 0.428571 1.14286 0.142857
v 0.428571 0.857143 0.285714
v 0.428571 1 0.285714
v 0.428571 1.14286 0.285714

g Oak_Log
usemtl Oak_Log
f -64/-7/-42 -63/-6/-42 -62/-5/-42 -65/-8/-42
f -64/-4/-41 -65/-1/-41 -60/-2/-41 -61/-3/-41
f -65/-7/-40 -62/-6/-40 -59/-5/-40 -60/-8/-40
f -61/-8/-39 -60/-7/-39 -59/-6/-39 -58/-5/-39
f -64/-8/-37 -61/-7/-37 -58/-6/-37 -63/-5/-37
f -63/-7/-42 -57/-6/-42 -56/-5/-42 -62/-8/-42
f -62/-7/-40 -56/-6/-40 -55/-5/-40 -59/-8/-40
f -58/-8/-39 -59/-7/-39 -55/-6/-39 -54/-5/-39
f -63/-8/-37 -58/-7/-37 -54/-6/-37 -57/-5/-37
f -57/-7/-42 -97/-6/-42 -104/-5/-42 -56/-8/-42
f -56/-7/-40 -104/-6/-40 -73/-5/-40 -55/-8/-40
f -54/-8/-39 -55/-7/-39 -73/-6/-39 -53/-5/-39
f -57/-8/-37 -54/-7/-37 -53/-6/-37 -97/-5/-37
f -97/-7/-42 -96/-6/-42 -103/-5/-42 -104/-8/-42
f -104/-7/-40 -103/-6/-40 -72/-5/-40 -73/-8/-40
f -53/-8/-39 -73/-7/-39 -72/-6/-39 -52/-5/-39
f -97/-8/-37 -53/-7/-37 -52/-6/-37 -96/-5/-37
f -96/-7/-42 -95/-6/-42 -102/-5/-42 -103/-8/-42
f -103/-7/-40 -102/-6/-40 -71/-5/-40 -72/-8/-40
f -52/-8/-39 -72/-7/-39 -71/-6/-39 -51/-5/-39
f -96/-8/-37 -52/-7/-37 -51/-6/-37 -95/-5/-37
f -95/-7/-42 -93/-6/-42 -98/-5/-42 -102/-8/-42
f -102/-7/-40 -98/-6/-40 -69/-5/-40 -71/-8/-40
f -51/-8/-39 -71/-7/-39 -69/-6/-39 -50/-5/-39
f -93/-4/-38 -50/-3/-38 -69/-2/-38 -98/-1/-38
f -95/-8/-37 -51/-7/-37 -50/-6/-37 -93/-5/-37

g Oak_Leaves
usemtl Oak_Leaves
f -138/-11/-42 -137/-10/-42 -136/-9/-42 -139/-12/-42
f -138/-12/-41 -139/-9/-41 -134/-10/-41 -135/-11/-41
f -139/-11/-40 -136/-10/-40 -133/-9/-40 -134/-12/-40
f -135/-12/-39 -134/-11/-39 -133/-10/-39 -132/-9/-39
f -137/-12/-38 -132/-11/-38 -133/-10/-38 -136/-9/-38
f -138/-12/-37 -135/-11/-37 -132/-10/-37 -137/-9/-37
f -131/-11/-42 -130/-10/-42 -137/-9/-42 -138/-12/-42
f -131/-12/-41 -138/-9/-41 -135/-10/-41 -129/-11/-41
f -138/-11/-40 -137/-10/-40 -132/-9/-40 -135/-12/-40
f -129/-12/-39 -135/-11/-39 -132/-10/-39 -128/-9/-39
f -130/-12/-38 -128/-11/-38 -132/-10/-38 -137/-9/-38
f -131/-12/-37 -129/-11/-37 -128/-10/-37 -130/-9/-37
f -130/-11/-42 -127/-10/-42 -126/-9/-42 -137/-12/-42
f -130/-12/-41 -137/-9/-41 -132/-10/-41 -128/-11/-41
f -137/-11/-40 -126/-10/-40 -125/-9/-40 -132/-12/-40
f -128/-12/-39 -132/-11/-39 -125/-10/-39 -124/-9/-39
f -127/-12/-38 -124/-11/-38 -125/-10/-38 -126/-9/-38
f -130/-12/-37 -128/-11/-37 -124/-10/-37 -127/-9/-37
f -123/-11/-42 -122/-10/-42 -130/-9/-42 -131/-12/-42
f -123/-12/-41 -131/-9/-41 -129/-10/-41 -121/-11/-41
f -131/-11/-40 -130/-10/-40 -128/-9/-40 -129/-12/-40
f -121/-12/-39 -129/-11/-39 -128/-10/-39 -120/-9/-39
f -122/-12/-38 -120/-11/-38 -128/-10/-38 -130/-9/-38
f -123/-12/-37 -121/-11/-37 -120/-10/-37 -122/-9/-37
f -122/-11/-42 -119/-10/-42 -127/-9/-42 -130/-12/-42
f -122/-12/-41 -130/-9/-41 -128/-10/-41 -120/-11/-41
f -130/-11/-40 -127/-10/-40 -124/-9/-40 -128/-12/-40
f -120/-12/-39 -128/-11/-39 -124/-10/-39 -118/-9/-39
f -119/-12/-38 -118/-11/-38 -124/-10/-38 -127/-9/-38
f -122/-12/-37 -120/-11/-37 -118/-10/-37 -119/-9/-37
f -117/-11/-42 -116/-10/-42 -122/-9/-42 -123/-12/-42
f -117/-12/-41 -123/-9/-41 -121/-10/-41 -115/-11/-41
f -123/-11/-40 -122/-10/-40 -120/-9/-40 -121/-12/-40
f -115/-12/-39 -121/-11/-39 -120/-10/-39 -114/-9/-39
f -116/-12/-38 -114/-11/-38 -120/-10/-38 -122/-9/-38
f -117/-12/-37 -115/-11/-37 -114/-10/-37 -116/-9/-37
f -116/-11/-42 -113/-10/-42 -119/-9/-42 -122/-12/-42
f -116/-12/-41 -122/-9/-41 -120/-10/-41 -114/-11/-41
f -122/-11/-40 -119/-10/-40 -118/-9/-40 -120/-12/-40
f -114/-12/-39 -120/-11/-39 -118/-10/-39 -112/-9/-39
f -113/-12/-38 -112/-11/-38 -118/-10/-38 -119/-9/-38
f -116/-12/-37 -114/-11/-37 -112/-10/-37 -113/-9/-37
f -135/-11/-42 -132/-10/-42 -133/-9/-42 -134/-12/-42
f -135/-12/-41 -134/-9/-41 -110/-10/-41 -111/-11/-41
f -134/-11/-40 -133/-10/-40 -109/-9/-40 -110/-12/-40
f -111/-12/-39 -110/-11/-39 -109/-10/-39 -108/-9/-39
f -132/-12/-38 -108/-11/-38 -109/-10/-38 -133/-9/-38
f -135/-12/-37 -111/-11/-37 -108/-10/-37 -132/-9/-37
f -132/-11/-42 -125/-10/-42 -107/-9/-42 -133/-12/-42
f -132/-12/-41 -133/-9/-41 -109/-10/-41 -108/-11/-41
f -133/-11/-40 -107/-10/-40 -106/-9/-40 -109/-12/-40
f -108/-12/-39 -109/-11/-39 -106/-10/-39 -105/-9/-39
f -125/-12/-38 -105/-11/-38 -106/-10/-38 -107/-9/-38
f -132/-12/-37 -108/-11/-37 -105/-10/-37 -125/-9/-37
f -129/-11/-42 -128/-10/-42 -132/-9/-42 -135/-12/-42
f -129/-12/-41 -135/-9/-41 -111/-10/-41 -104/-11/-41
f -135/-11/-40 -132/-10/-40 -108/-9/-40 -111/-12/-40
f -104/-12/-39 -111/-11/-39 -108/-10/-39 -103/-9/-39
f -128/-12/-38 -103/-11/-38 -108/-10/-38 -132/-9/-38
f -129/-12/-37 -104/-11/-37 -103/-10/-37 -128/-9/-37
f -128/-11/-42 -124/-10/-42 -125/-9/-42 -132/-12/-42
f -128/-12/-41 -132/-9/-41 -108/-10/-41 -103/-11/-41
f -132/-11/-40 -125/-10/-40 -105/-9/-40 -108/-12/-40
f -103/-12/-39 -108/-11/-39 -105/-10/-39 -102/-9/-39
f -124/-12/-38 -102/-11/-38 -105/-10/-38 -125/-9/-38
f -128/-12/-37 -103/-11/-37 -102/-10/-37 -124/-9/-37
f -124/-11/-42 -101/-10/-42 -100/-9/-42 -125/-12/-42
f -124/-12/-41 -125/-9/-41 -105/-10/-41 -102/-11/-41
f -125/-11/-40 -100/-10/-40 -99/-9/-40 -105/-12/-40
f -102/-12/-39 -105/-11/-39 -99/-10/-39 -98/-9/-39
f -101/-12/-38 -98/-11/-38 -99/-10/-38 -100/-9/-38
f -124/-12/-37 -102/-11/-37 -98/-10/-37 -101/-9/-37
f -121/-11/-42 -120/-10/-42 -128/-9/-42 -129/-12/-42
f -121/-12/-41 -129/-9/-41 -104/-10/-41 -97/-11/-41
f -129/-11/-40 -128/-10/-40 -103/-9/-40 -104/-12/-40
f -120/-12/-38 -96/-11/-38 -103/-10/-38 -128/-9/-38
f -121/-12/-37 -97/-11/-37 -96/-10/-37 -120/-9/-37
f -120/-11/-42 -118/-10/-42 -124/-9/-42 -128/-12/-42
f -120/-12/-41 -128/-9/-41 -103/-10/-41 -96/-11/-41
f -128/-11/-40 -124/-10/-40 -102/-9/-40 -103/-12/-40
f -118/-12/-38 -95/-11/-38 -102/-10/-38 -124/-9/-38
f -120/-12/-37 -96/-11/-37 -95/-10/-37 -118/-9/-37
f -118/-11/-42 -94/-10/-42 -101/-9/-42 -124/-12/-42
f -118/-12/-41 -124/-9/-41 -102/-10/-41 -95/-11/-41
f -124/-11/-40 -101/-10/-40 -98/-9/-40 -102/-12/-40
f -94/-12/-38 -93/-11/-38 -98/-10/-38 -101/-9/-38
f -118/-12/-37 -95/-11/-37 -93/-10/-37 -94/-9/-37
f -94/-11/-42 -92/-10/-42 -91/-9/-42 -101/-12/-42
f -94/-12/-41 -101/-9/-41 -98/-10/-41 -93/-11/-41
f -101/-11/-40 -91/-10/-40 -90/-9/-40 -98/-12/-40
f -93/-12/-39 -98/-11/-39 -90/-10/-39 -89/-9/-39
f -92/-12/-38 -89/-11/-38 -90/-10/-38 -91/-9/-38
f -94/-12/-37 -93/-11/-37 -89/-10/-37 -92/-9/-37
f -115/-11/-42 -114/-10/-42 -120/-9/-42 -121/-12/-42
f -115/-12/-41 -121/-9/-41 -97/-10/-41 -88/-11/-41
f -121/-11/-40 -120/-10/-40 -96/-9/-40 -97/-12/-40
f -88/-12/-39 -97/-11/-39 -96/-10/-39 -87/-9/-39
f -114/-12/-38 -87/-11/-38 -96/-10/-38 -120/-9/-38
f -115/-12/-37 -88/-11/-37 -87/-10/-37 -114/-9/-37
f -114/-11/-42 -112/-10/-42 -118/-9/-42 -120/-12/-42
f -114/-12/-41 -120/-9/-41 -96/-10/-41 -87/-11/-41
f -120/-11/-40 -118/-10/-40 -95/-9/-40 -96/-12/-40
f -87/-12/-39 -96/-11/-39 -95/-10/-39 -86/-9/-39
f -112/-12/-38 -86/-11/-38 -95/-10/-38 -118/-9/-38
f -114/-12/-37 -87/-11/-37 -86/-10/-37 -112/-9/-37
f -85/-11/-42 -84/-10/-42 -114/-9/-42 -115/-12/-42
f -85/-12/-41 -115/-9/-41 -88/-10/-41 -83/-11/-41
f -115/-11/-40 -114/-10/-40 -87/-9/-40 -88/-12/-40
f -83/-12/-39 -88/-11/-39 -87/-10/-39 -82/-9/-39
f -84/-12/-38 -82/-11/-38 -87/-10/-38 -114/-9/-38
f -85/-12/-37 -83/-11/-37 -82/-10/-37 -84/-9/-37
f -84/-11/-42 -81/-10/-42 -112/-9/-42 -114/-12/-42
f -84/-12/-41 -114/-9/-41 -87/-10/-41 -82/-11/-41
f -114/-11/-40 -112/-10/-40 -86/-9/-40 -87/-12/-40
f -82/-12/-39 -87/-11/-39 -86/-10/-39 -80/-9/-39
f -81/-12/-38 -80/-11/-38 -86/-10/-38 -112/-9/-38
f -84/-12/-37 -82/-11/-37 -80/-10/-37 -81/-9/-37
f -111/-11/-42 -108/-10/-42 -109/-9/-42 -110/-12/-42
f -111/-12/-41 -110/-9/-41 -78/-10/-41 -79/-11/-41
f -110/-11/-40 -109/-10/-40 -77/-9/-40 -78/-12/-40
f -79/-12/-39 -78/-11/-39 -77/-10/-39 -76/-9/-39
f -108/-12/-38 -76/-11/-38 -77/-10/-38 -109/-9/-38
f -111/-12/-37 -79/-11/-37 -76/-10/-37 -108/-9/-37
f -108/-11/-42 -105/-10/-42 -106/-9/-42 -109/-12/-42
f -108/-12/-41 -109/-9/-41 -77/-10/-41 -76/-11/-41
f -109/-11/-40 -106/-10/-40 -75/-9/-40 -77/-12/-40
f -76/-12/-39 -77/-11/-39 -75/-10/-39 -74/-9/-39
f -105/-12/-38 -74/-11/-38 -75/-10/-38 -106/-9/-38
f -108/-12/-37 -76/-11/-37 -74/-10/-37 -105/-9/-37
f -104/-11/-42 -103/-10/-42 -108/-9/-42 -111/-12/-42
f -104/-12/-41 -111/-9/-41 -79/-10/-41 -73/-11/-41
f -111/-11/-40 -108/-10/-40 -76/-9/-40 -79/-12/-40
f -73/-12/-39 -79/-11/-39 -76/-10/-39 -72/-9/-39
f -103/-12/-38 -72/-11/-38 -76/-10/-38 -108/-9/-38
f -103/-11/-42 -102/-10/-42 -105/-9/-42 -108/-12/-42
f -103/-12/-41 -108/-9/-41 -76/-10/-41 -72/-11/-41
f -108/-11/-40 -105/-10/-40 -74/-9/-40 -76/-12/-40
f -72/-12/-39 -76/-11/-39 -74/-10/-39 -71/-9/-39
f -102/-12/-38 -71/-11/-38 -74/-10/-38 -105/-9/-38
f -102/-11/-42 -98/-10/-42 -99/-9/-42 -105/-12/-42
f -102/-12/-41 -105/-9/-41 -74/-10/-41 -71/-11/-41
f -105/-11/-40 -99/-10/-40 -70/-9/-40 -74/-12/-40
f -71/-12/-39 -74/-11/-39 -70/-10/-39 -69/-9/-39
f -98/-12/-38 -69/-11/-38 -70/-10/-38 -99/-9/-38
f -98/-11/-42 -90/-10/-42 -68/-9/-42 -99/-12/-42
f -98/-12/-41 -99/-9/-41 -70/-10/-41 -69/-11/-41
f -99/-11/-40 -68/-10/-40 -67/-9/-40 -70/-12/-40
f -69/-12/-39 -70/-11/-39 -67/-10/-39 -66/-9/-39
f -90/-12/-38 -66/-11/-38 -67/-10/-38 -68/-9/-38
f -98/-12/-37 -69/-11/-37 -66/-10/-37 -90/-9/-37
f -93/-11/-42 -89/-10/-42 -90/-9/-42 -98/-12/-42
f -98/-11/-40 -90/-10/-40 -66/-9/-40 -69/-12/-40
f -50/-12/-39 -69/-11/-39 -66/-10/-39 -49/-9/-39
f -89/-12/-38 -49/-11/-38 -66/-10/-38 -90/-9/-38
f -93/-12/-37 -50/-11/-37 -49/-10/-37 -89/-9/-37
f -88/-11/-42 -87/-10/-42 -96/-9/-42 -97/-12/-42
f -88/-12/-41 -97/-9/-41 -53/-10/-41 -48/-11/-41
f -48/-12/-39 -53/-11/-39 -52/-10/-39 -47/-9/-39
f -87/-12/-38 -47/-11/-38 -52/-10/-38 -96/-9/-38
f -88/-12/-37 -48/-11/-37 -47/-10/-37 -87/-9/-37
f -87/-11/-42 -86/-10/-42 -95/-9/-42 -96/-12/-42
f -87/-12/-41 -96/-9/-41 -52/-10/-41 -47/-11/-41
f -47/-12/-39 -52/-11/-39 -51/-10/-39 -46/-9/-39
f -86/-12/-38 -46/-11/-38 -51/-10/-38 -95/-9/-38
f -87/-12/-37 -47/-11/-37 -46/-10/-37 -86/-9/-37
f -86/-11/-42 -45/-10/-42 -93/-9/-42 -95/-12/-42
f -86/-12/-41 -95/-9/-41 -51/-10/-41 -46/-11/-41
f -46/-12/-39 -51/-11/-39 -50/-10/-39 -44/-9/-39
f -45/-12/-38 -44/-11/-38 -50/-10/-38 -93/-9/-38
f -86/-12/-37 -46/-11/-37 -44/-10/-37 -45/-9/-37
f -45/-11/-42 -43/-10/-42 -89/-9/-42 -93/-12/-42
f -45/-12/-41 -93/-9/-41 -50/-10/-41 -44/-11/-41
f -93/-11/-40 -89/-10/-40 -49/-9/-40 -50/-12/-40
f -44/-12/-39 -50/-11/-39 -49/-10/-39 -42/-9/-39
f -43/-12/-38 -42/-11/-38 -49/-10/-38 -89/-9/-38
f -45/-12/-37 -44/-11/-37 -42/-10/-37 -43/-9/-37
f -83/-11/-42 -82/-10/-42 -87/-9/-42 -88/-12/-42
f -83/-12/-41 -88/-9/-41 -48/-10/-41 -41/-11/-41
f -88/-11/-40 -87/-10/-40 -47/-9/-40 -48/-12/-40
f -41/-12/-39 -48/-11/-39 -47/-10/-39 -40/-9/-39
f -82/-12/-38 -40/-11/-38 -47/-10/-38 -87/-9/-38
f -83/-12/-37 -41/-11/-37 -40/-10/-37 -82/-9/-37
f -82/-11/-42 -80/-10/-42 -86/-9/-42 -87/-12/-42
f -82/-12/-41 -87/-9/-41 -47/-10/-41 -40/-11/-41
f -87/-11/-40 -86/-10/-40 -46/-9/-40 -47/-12/-40
f -40/-12/-39 -47/-11/-39 -46/-10/-39 -39/-9/-39
f -80/-12/-38 -39/-11/-38 -46/-10/-38 -86/-9/-38
f -82/-12/-37 -40/-11/-37 -39/-10/-37 -80/-9/-37
f -79/-11/-42 -76/-10/-42 -77/-9/-42 -78/-12/-42
f -79/-12/-41 -78/-9/-41 -37/-10/-41 -38/-11/-41
f -78/-11/-40 -77/-10/-40 -36/-9/-40 -37/-12/-40
f -38/-12/-39 -37/-11/-39 -36/-10/-39 -35/-9/-39
f -76/-12/-38 -35/-11/-38 -36/-10/-38 -77/-9/-38
f -79/-12/-37 -38/-11/-37 -35/-10/-37 -76/-9/-37
f -76/-11/-42 -74/-10/-42 -75/-9/-42 -77/-12/-42
f -76/-12/-41 -77/-9/-41 -36/-10/-41 -35/-11/-41
f -77/-11/-40 -75/-10/-40 -34/-9/-40 -36/-12/-40
f -35/-12/-39 -36/-11/-39 -34/-10/-39 -33/-9/-39
f -74/-12/-38 -33/-11/-38 -34/-10/-38 -75/-9/-38
f -76/-12/-37 -35/-11/-37 -33/-10/-37 -74/-9/-37
f -73/-11/-42 -72/-10/-42 -76/-9/-42 -79/-12/-42
f -73/-12/-41 -79/-9/-41 -38/-10/-41 -32/-11/-41
f -79/-11/-40 -76/-10/-40 -35/-9/-40 -38/-12/-40
f -32/-12/-39 -38/-11/-39 -35/-10/-39 -31/-9/-39
f -72/-12/-38 -31/-11/-38 -35/-10/-38 -76/-9/-38
f -73/-12/-37 -32/-11/-37 -31/-10/-37 -72/-9/-37
f -72/-11/-42 -71/-10/-42 -74/-9/-42 -76/-12/-42
f -72/-12/-41 -76/-9/-41 -35/-10/-41 -31/-11/-41
f -76/-11/-40 -74/-10/-40 -33/-9/-40 -35/-12/-40
f -31/-12/-39 -35/-11/-39 -33/-10/-39 -30/-9/-39
f -71/-12/-38 -30/-11/-38 -33/-10/-38 -74/-9/-38
f -72/-12/-37 -31/-11/-37 -30/-10/-37 -71/-9/-37
f -53/-12/-41 -73/-9/-41 -32/-10/-41 -29/-11/-41
f -73/-11/-40 -72/-10/-40 -31/-9/-40 -32/-12/-40
f -29/-12/-39 -32/-11/-39 -31/-10/-39 -28/-9/-39
f -52/-12/-38 -28/-11/-38 -31/-10/-38 -72/-9/-38
f -53/-12/-37 -29/-11/-37 -28/-10/-37 -52/-9/-37
f -52/-12/-41 -72/-9/-41 -31/-10/-41 -28/-11/-41
f -72/-11/-40 -71/-10/-40 -30/-9/-40 -31/-12/-40
f -28/-12/-39 -31/-11/-39 -30/-10/-39 -27/-9/-39
f -51/-12/-38 -27/-11/-38 -30/-10/-38 -71/-9/-38
f -52/-12/-37 -28/-11/-37 -27/-10/-37 -51/-9/-37
f -51/-12/-41 -71/-9/-41 -30/-10/-41 -27/-11/-41
f -71/-11/-40 -69/-10/-40 -26/-9/-40 -30/-12/-40
f -27/-12/-39 -30/-11/-39 -26/-10/-39 -25/-9/-39
f -50/-12/-38 -25/-11/-38 -26/-10/-38 -69/-9/-38
f -51/-12/-37 -27/-11/-37 -25/-10/-37 -50/-9/-37
f -50/-11/-42 -49/-10/-42 -66/-9/-42 -69/-12/-42
f -50/-12/-41 -69/-9/-41 -26/-10/-41 -25/-11/-41
f -69/-11/-40 -66/-10/-40 -24/-9/-40 -26/-12/-40
f -25/-12/-39 -26/-11/-39 -24/-10/-39 -23/-9/-39
f -49/-12/-38 -23/-11/-38 -24/-10/-38 -66/-9/-38
f -50/-12/-37 -25/-11/-37 -23/-10/-37 -49/-9/-37
f -48/-11/-42 -47/-10/-42 -52/-9/-42 -53/-12/-42
f -48/-12/-41 -53/-9/-41 -29/-10/-41 -22/-11/-41
f -53/-11/-40 -52/-10/-40 -28/-9/-40 -29/-12/-40
f -22/-12/-39 -29/-11/-39 -28/-10/-39 -21/-9/-39
f -47/-12/-38 -21/-11/-38 -28/-10/-38 -52/-9/-38
f -48/-12/-37 -22/-11/-37 -21/-10/-37 -47/-9/-37
f -47/-11/-42 -46/-10/-42 -51/-9/-42 -52/-12/-42
f -47/-12/-41 -52/-9/-41 -28/-10/-41 -21/-11/-41
f -52/-11/-40 -51/-10/-40 -27/-9/-40 -28/-12/-40
f -21/-12/-39 -28/-11/-39 -27/-10/-39 -20/-9/-39
f -46/-12/-38 -20/-11/-38 -27/-10/-38 -51/-9/-38
f -47/-12/-37 -21/-11/-37 -20/-10/-37 -46/-9/-37
f -46/-11/-42 -44/-10/-42 -50/-9/-42 -51/-12/-42
f -46/-12/-41 -51/-9/-41 -27/-10/-41 -20/-11/-41
f -51/-11/-40 -50/-10/-40 -25/-9/-40 -27/-12/-40
f -20/-12/-39 -27/-11/-39 -25/-10/-39 -19/-9/-39
f -44/-12/-38 -19/-11/-38 -25/-10/-38 -50/-9/-38
f -46/-12/-37 -20/-11/-37 -19/-10/-37 -44/-9/-37
f -41/-11/-42 -40/-10/-42 -47/-9/-42 -48/-12/-42
f -41/-12/-41 -48/-9/-41 -22/-10/-41 -18/-11/-41
f -48/-11/-40 -47/-10/-40 -21/-9/-40 -22/-12/-40
f -18/-12/-39 -22/-11/-39 -21/-10/-39 -17/-9/-39
f -40/-12/-38 -17/-11/-38 -21/-10/-38 -47/-9/-38
f -41/-12/-37 -18/-11/-37 -17/-10/-37 -40/-9/-37
f -40/-11/-42 -39/-10/-42 -46/-9/-42 -47/-12/-42
f -40/-12/-41 -47/-9/-41 -21/-10/-41 -17/-11/-41
f -47/-11/-40 -46/-10/-40 -20/-9/-40 -21/-12/-40
f -17/-12/-39 -21/-11/-39 -20/-10/-39 -16/-9/-39
f -39/-12/-38 -16/-11/-38 -20/-10/-38 -46/-9/-38
f -40/-12/-37 -17/-11/-37 -16/-10/-37 -39/-9/-37
f -38/-11/-42 -35/-10/-42 -36/-9/-42 -37/-12/-42
f -38/-12/-41 -37/-9/-41 -14/-10/-41 -15/-11/-41
f -37/-11/-40 -36/-10/-40 -13/-9/-40 -14/-12/-40
f -15/-12/-39 -14/-11/-39 -13/-10/-39 -12/-9/-39
f -35/-12/-38 -12/-11/-38 -13/-10/-38 -36/-9/-38
f -38/-12/-37 -15/-11/-37 -12/-10/-37 -35/-9/-37
f -35/-11/-42 -33/-10/-42 -34/-9/-42 -36/-12/-42
f -35/-12/-41 -36/-9/-41 -13/-10/-41 -12/-11/-41
f -36/-11/-40 -34/-10/-40 -11/-9/-40 -13/-12/-40
f -12/-12/-39 -13/-11/-39 -11/-10/-39 -10/-9/-39
f -33/-12/-38 -10/-11/-38 -11/-10/-38 -34/-9/-38
f -35/-12/-37 -12/-11/-37 -10/-10/-37 -33/-9/-37
f -32/-11/-42 -31/-10/-42 -35/-9/-42 -38/-12/-42
f -32/-12/-41 -38/-9/-41 -15/-10/-41 -9/-11/-41
f -38/-11/-40 -35/-10/-40 -12/-9/-40 -15/-12/-40
f -9/-12/-39 -15/-11/-39 -12/-10/-39 -8/-9/-39
f -31/-12/-38 -8/-11/-38 -12/-10/-38 -35/-9/-38
f -32/-12/-37 -9/-11/-37 -8/-10/-37 -31/-9/-37
f -31/-11/-42 -30/-10/-42 -33/-9/-42 -35/-12/-42
f -31/-12/-41 -35/-9/-41 -12/-10/-41 -8/-11/-41
f -35/-11/-40 -33/-10/-40 -10/-9/-40 -12/-12/-40
f -8/-12/-39 -12/-11/-39 -10/-10/-39 -7/-9/-39
f -30/-12/-38 -7/-11/-38 -10/-10/-38 -33/-9/-38
f -31/-12/-37 -8/-11/-37 -7/-10/-37 -30/-9/-37
f -29/-11/-42 -28/-10/-42 -31/-9/-42 -32/-12/-42
f -29/-12/-41 -32/-9/-41 -9/-10/-41 -6/-11/-41
f -32/-11/-40 -31/-10/-40 -8/-9/-40 -9/-12/-40
f -6/-12/-39 -9/-11/-39 -8/-10/-39 -5/-9/-39
f -28/-12/-38 -5/-11/-38 -8/-10/-38 -31/-9/-38
f -29/-12/-37 -6/-11/-37 -5/-10/-37 -28/-9/-37
f -28/-11/-42 -27/-10/-42 -30/-9/-42 -31/-12/-42
f -28/-12/-41 -31/-9/-41 -8/-10/-41 -5/-11/-41
f -31/-11/-40 -30/-10/-40 -7/-9/-40 -8/-12/-40
f -5/-12/-39 -8/-11/-39 -7/-10/-39 -4/-9/-39
f -27/-12/-38 -4/-11/-38 -7/-10/-38 -30/-9/-38
f -28/-12/-37 -5/-11/-37 -4/-10/-37 -27/-9/-37
f -22/-11/-42 -21/-10/-42 -28/-9/-42 -29/-12/-42
f -22/-12/-41 -29/-9/-41 -6/-10/-41 -3/-11/-41
f -29/-11/-40 -28/-10/-40 -5/-9/-40 -6/-12/-40
f -3/-12/-39 -6/-11/-39 -5/-10/-39 -2/-9/-39
f -21/-12/-38 -2/-11/-38 -5/-10/-38 -28/-9/-38
f -22/-12/-37 -3/-11/-37 -2/-10/-37 -21/-9/-37
f -21/-11/-42 -20/-10/-42 -27/-9/-42 -28/-12/-42
f -21/-12/-41 -28/-9/-41 -5/-10/-41 -2/-11/-41
f -28/-11/-40 -27/-10/-40 -4/-9/-40 -5/-12/-40
f -2/-12/-39 -5/-11/-39 -4/-10/-39 -1/-9/-39
f -20/-12/-38 -1/-11/-38 -4/-10/-38 -27/-9/-38
f -21/-12/-37 -2/-11/-37 -1/-10/-37 -20/-9/-37
